<svg width="24" height="24" viewBox="0 0 24 24" fill="none" xmlns="http://www.w3.org/2000/svg"><g fillRule="evenodd" clipRule="evenodd"><path d="M11.38 2.005c3.459-.103 6.095 1.303 7.908 4.218 1.218 2.27 1.413 4.626.586 7.07a8.932 8.932 0 0 1-1.836 2.93l-5.604 5.604c-.288.23-.574.23-.86 0a346.798 346.798 0 0 1-6.151-6.23c-1.93-2.624-2.307-5.463-1.133-8.514 1.233-2.664 3.284-4.311 6.152-4.941.32-.036.632-.082.937-.137Z" fill="#00B975" /><path d="M11.418 6.692c1.98-.146 3.353.687 4.12 2.5.444 1.555.085 2.89-1.074 4.003-1.152.922-2.428 1.143-3.827.665-1.788-.848-2.55-2.261-2.285-4.238.424-1.608 1.446-2.584 3.066-2.93Z" fill="#AAE8D1" /></g></svg>