<svg height="24" viewBox="0 0 5499 725" fill="none" xmlns="http://www.w3.org/2000/svg">
  <path
    d="M266.424 76.6692L22.8571 485.367C-40.4428 591.325 35.2419 724.806 157.714 724.806H647.6C770.072 724.806 845.757 591.325 782.457 485.367L537.513 76.6692C476.966 -25.1612 328.348 -25.1612 266.424 76.6692ZM508.615 95.9344L753.559 504.632C787.961 562.427 746.678 636.736 679.25 636.736H187.987C120.559 636.736 79.2766 562.427 113.679 504.632L358.622 95.9344C393.024 39.5149 474.213 39.5149 508.615 95.9344Z"
    fill="#DCA86E"
  />
  <path
    d="M410.891 181.266L248.513 452.355C223.743 493.638 254.017 547.305 302.18 547.305H628.312C676.475 547.305 706.749 493.638 681.98 452.355L518.226 181.266C494.832 139.984 435.66 139.984 410.891 181.266ZM516.849 245.942L622.808 423.457C632.441 439.97 621.432 460.612 602.167 460.612H390.25C370.984 460.612 359.976 439.97 369.608 423.457L475.567 245.942C485.199 229.429 508.593 229.429 516.849 245.942Z"
    fill="#DCA86E"
  />
  <path
    d="M1215.46 192.602C1304.59 192.602 1392.92 242.292 1407.91 347.194H1303.8C1295.12 306.18 1257.26 276.997 1215.46 276.997C1158.67 276.997 1113.71 325.11 1113.71 413.448C1113.71 502.576 1156.3 552.266 1216.25 552.266C1254.11 552.266 1292.75 532.548 1307.74 482.068H1411.85C1386.61 598.013 1299.06 636.661 1210.73 636.661C1083.74 636.661 1002.5 543.59 1002.5 415.026C1002.5 285.673 1088.47 192.602 1215.46 192.602Z"
    fill="black"
  />
  <path
    d="M1866.39 444.209H1553.27C1559.58 516.773 1608.48 552.266 1660.53 552.266C1694.45 552.266 1727.58 540.435 1749.66 503.364H1861.66C1838.79 566.463 1777.27 636.661 1661.32 636.661C1524.87 636.661 1445.21 534.914 1445.21 412.66C1445.21 286.462 1532.76 192.602 1658.17 192.602C1789.1 192.602 1870.34 294.349 1866.39 444.209ZM1657.38 272.264C1616.36 272.264 1563.52 297.504 1554.84 369.279H1755.97C1753.6 297.504 1703.13 272.264 1657.38 272.264Z"
    fill="black"
  />
  <path
    d="M2041.6 202.067V258.067C2066.05 214.686 2111.8 192.602 2164.64 192.602C2266.39 192.602 2311.35 254.123 2311.35 359.025V626.407H2202.5V382.688C2202.5 328.265 2190.67 280.152 2129.15 280.152C2057.37 280.152 2041.6 338.518 2041.6 405.561V626.407H1932.75V202.067H2041.6Z"
    fill="black"
  />
  <path
    d="M2393.97 202.067V86.911H2502.81V202.067H2591.15V276.997H2502.81V496.266C2502.81 539.646 2517.8 548.322 2556.45 548.322H2589.58V626.407H2509.91C2412.11 626.407 2393.97 596.435 2393.97 512.04V276.997V202.067Z"
    fill="black"
  />
  <path
    d="M3050 444.209H2736.87C2743.18 516.773 2792.08 552.266 2844.14 552.266C2878.06 552.266 2911.18 540.435 2933.27 503.364H3045.27C3022.4 566.463 2960.87 636.661 2844.93 636.661C2708.48 636.661 2628.82 534.914 2628.82 412.66C2628.82 286.462 2716.37 192.602 2841.77 192.602C2972.7 192.602 3053.94 294.349 3050 444.209ZM2840.99 272.264C2799.97 272.264 2747.13 297.504 2738.45 369.279H2939.58C2937.21 297.504 2886.73 272.264 2840.99 272.264Z"
    fill="black"
  />
  <path
    d="M3356.82 204.433V306.969C3341.05 304.603 3327.64 304.603 3311.86 304.603C3258.23 304.603 3222.73 324.321 3222.73 403.983V626.407H3113.89V202.067H3221.16V276.208C3245.61 223.363 3283.47 202.855 3333.16 202.855C3340.26 202.855 3349.72 203.644 3356.82 204.433Z"
    fill="black"
  />
  <path
    d="M3607.02 192.602C3696.15 192.602 3784.49 242.292 3799.47 347.194H3695.36C3686.68 306.18 3648.83 276.997 3607.02 276.997C3550.23 276.997 3505.28 325.11 3505.28 413.448C3505.28 502.576 3547.87 552.266 3607.81 552.266C3645.67 552.266 3684.32 532.548 3699.3 482.068H3803.42C3778.18 598.013 3690.63 636.661 3602.29 636.661C3475.3 636.661 3394.06 543.59 3394.06 415.026C3394.06 285.673 3480.04 192.602 3607.02 192.602Z"
    fill="black"
  />
  <path
    d="M4110.06 204.433V306.969C4094.29 304.603 4080.88 304.603 4065.11 304.603C4011.47 304.603 3975.98 324.321 3975.98 403.983V626.407H3867.13V202.067H3974.4V276.208C3998.85 223.363 4036.71 202.855 4086.4 202.855C4093.5 202.855 4102.97 203.644 4110.06 204.433Z"
    fill="black"
  />
  <path
    d="M4569.31 444.209H4256.18C4262.49 516.773 4311.39 552.266 4363.45 552.266C4397.36 552.266 4430.49 540.435 4452.57 503.364H4564.57C4541.7 566.463 4480.18 636.661 4364.23 636.661C4227.78 636.661 4148.12 534.914 4148.12 412.66C4148.12 286.462 4235.67 192.602 4361.08 192.602C4492.01 192.602 4573.25 294.349 4569.31 444.209ZM4360.29 272.264C4319.28 272.264 4266.43 297.504 4257.76 369.279H4458.88C4456.52 297.504 4406.04 272.264 4360.29 272.264Z"
    fill="black"
  />
  <path
    d="M5024.66 626.407H4915.81V572.773C4888.21 620.098 4837.73 636.661 4793.56 636.661C4692.6 636.661 4609 549.9 4609 414.237C4609 280.94 4691.02 192.602 4793.56 192.602C4847.19 192.602 4892.94 216.264 4915.81 256.49V54.5728H5024.66V626.407ZM4820.38 553.055C4880.32 553.055 4919.76 501.787 4919.76 414.237C4919.76 329.053 4880.32 276.208 4820.38 276.208C4763.59 276.208 4723.36 332.208 4723.36 415.026C4723.36 497.843 4763.59 553.055 4820.38 553.055Z"
    fill="black"
  />
  <path
    d="M5108.41 202.067H5217.25V626.407H5108.41V202.067ZM5108.41 54.5728H5217.25V155.531H5108.41V54.5728Z"
    fill="black"
  />
  <path
    d="M5301.2 202.318V87.1621H5410.05V202.318H5498.39V277.248H5410.05V496.517C5410.05 539.897 5425.03 548.573 5463.68 548.573H5496.81V626.658H5417.15C5319.34 626.658 5301.2 596.686 5301.2 512.292V277.248V202.318Z"
    fill="black"
  />
</svg>